<?xml version="1.0" encoding="windows-1252"?>
<!-- Generator: Adobe Illustrator 18.0.0, SVG Export Plug-In . SVG Version: 6.00 Build 0)  -->
<!DOCTYPE svg PUBLIC "-//W3C//DTD SVG 1.1//EN" "http://www.w3.org/Graphics/SVG/1.1/DTD/svg11.dtd">
<svg version="1.1" id="Capa_1" xmlns="http://www.w3.org/2000/svg" xmlns:xlink="http://www.w3.org/1999/xlink" x="0px" y="0px" viewBox="0 0 325.902 325.902" style="enable-background:new 0 0 325.902 325.902;" xml:space="preserve">
<path d="M289.486,169.775l36.416-6.423l-9.98-56.672l-36.406,6.415c-4.02-9.392-9.123-18.203-15.186-26.271l23.762-28.326  l-44.074-36.992l-23.77,28.315c-8.941-4.547-18.504-8.058-28.523-10.388V2.472h-57.549v36.961  c-10.004,2.33-19.572,5.841-28.521,10.388L81.908,21.507l-44.098,36.99l23.783,28.325c-6.061,8.069-11.188,16.881-15.195,26.273  l-36.404-6.415L0,163.352l36.439,6.423c0.557,10.344,2.344,20.35,5.23,29.887l-32,18.48l28.766,49.841l32.049-18.498  c6.918,7.389,14.725,13.949,23.219,19.507l-12.648,34.75l54.088,19.688l12.643-34.756c4.973,0.592,10.031,0.906,15.178,0.906  c5.125,0,10.184-0.314,15.158-0.906l12.65,34.755l54.074-19.685l-12.646-34.753c8.518-5.558,16.318-12.117,23.232-19.506  l32.043,18.498l28.773-49.84l-32.016-18.48C287.121,190.124,288.93,180.118,289.486,169.775z M108.582,162.868  c0-30.032,24.351-54.373,54.381-54.373c30.021,0,54.367,24.341,54.367,54.373c0,30.027-24.346,54.366-54.367,54.366  C132.934,217.234,108.582,192.895,108.582,162.868z"/>
<g>
</g>
<g>
</g>
<g>
</g>
<g>
</g>
<g>
</g>
<g>
</g>
<g>
</g>
<g>
</g>
<g>
</g>
<g>
</g>
<g>
</g>
<g>
</g>
<g>
</g>
<g>
</g>
<g>
</g>
</svg>